<?xml version="1.0" standalone="no"?>
<!DOCTYPE svg PUBLIC "-//W3C//DTD SVG 20010904//EN"
 "http://www.w3.org/TR/2001/REC-SVG-20010904/DTD/svg10.dtd">
<svg version="1.0" xmlns="http://www.w3.org/2000/svg"
 width="500.000000pt" height="500.000000pt" viewBox="0 0 500.000000 500.000000"
 preserveAspectRatio="xMidYMid meet">

<g transform="translate(0.000000,500.000000) scale(0.100000,-0.100000)"
fill="#000000" stroke="none">
<path d="M2214 3869 c-204 -117 -376 -216 -644 -371 -47 -28 -134 -77 -194
-111 -131 -74 -178 -117 -195 -178 -9 -33 -11 -212 -9 -729 l3 -685 23 -40
c13 -22 34 -48 48 -58 26 -20 40 -28 514 -301 179 -104 404 -234 500 -289 173
-101 176 -102 240 -102 65 0 66 1 265 116 231 134 451 261 755 436 227 131
281 174 299 239 12 44 15 552 3 570 -4 7 -35 28 -69 48 -35 20 -63 41 -63 47
0 5 21 22 47 37 100 58 93 30 93 367 0 327 -5 368 -54 419 -17 17 -110 77
-206 133 -96 55 -352 203 -569 328 -216 125 -408 233 -427 241 -18 8 -55 14
-82 14 -44 0 -70 -12 -278 -131z m1456 -987 c0 -278 13 -247 -140 -334 -397
-228 -507 -293 -524 -307 -39 -33 -56 -91 -56 -191 0 -105 13 -140 54 -140 12
0 89 39 172 86 404 233 464 266 479 260 13 -4 15 -36 15 -207 l0 -202 -39 -36
c-21 -20 -83 -61 -137 -92 -54 -30 -223 -127 -374 -214 -520 -300 -564 -325
-572 -325 -13 0 -10 1255 3 1284 15 32 44 51 249 168 91 52 226 130 300 173
74 43 153 88 175 101 22 12 114 65 205 118 91 53 171 96 177 96 10 0 13 -54
13 -238z"/>
</g>
</svg>
